<svg width="456" height="597" viewBox="0 0 456 597" fill="none" xmlns="http://www.w3.org/2000/svg">
<g filter="url(#filter0_d_1313_1495)">
<path d="M30 34C30 20.7452 40.7452 10 54 10H402C415.255 10 426 20.7452 426 34V523C426 536.255 415.255 547 402 547H54C40.7452 547 30 536.255 30 523V34Z" fill="white"/>
<g clip-path="url(#clip0_1313_1495)">
<path d="M228 327C294.274 327 348 273.274 348 207C348 140.726 294.274 87 228 87C161.726 87 108 140.726 108 207C108 273.274 161.726 327 228 327Z" fill="url(#paint0_linear_1313_1495)"/>
<g filter="url(#filter1_d_1313_1495)">
<rect x="167" y="121.556" width="124.537" height="155.029" rx="16" fill="url(#paint1_linear_1313_1495)"/>
</g>
<rect x="178" y="141.556" width="50" height="9.8" rx="4.9" fill="black"/>
<rect x="178" y="169.356" width="100" height="9.8" rx="4.9" fill="#D5D5D5"/>
<rect x="178" y="197.156" width="100" height="9.8" rx="4.9" fill="#D5D5D5"/>
<rect x="178" y="224.956" width="100" height="9.8" rx="4.9" fill="#D5D5D5"/>
<rect x="178" y="252.756" width="100" height="9.8" rx="4.9" fill="#D5D5D5"/>
<g filter="url(#filter2_d_1313_1495)">
<path d="M366.15 104.424H306.069C303.27 104.424 301 106.813 301 109.759V139.478C301 142.424 303.27 144.813 306.069 144.813H366.15C368.949 144.813 371.219 142.424 371.219 139.478V109.759C371.219 106.813 368.949 104.424 366.15 104.424Z" fill="white"/>
</g>
<path d="M316 131C319.314 131 322 128.314 322 125C322 121.686 319.314 119 316 119C312.686 119 310 121.686 310 125C310 128.314 312.686 131 316 131Z" fill="#CCC6D9"/>
<rect x="330" y="119" width="32" height="12" rx="6" fill="#D5D5D5"/>
<path fill-rule="evenodd" clip-rule="evenodd" d="M263.109 283.563C275.989 283.563 287.959 279.667 297.905 272.989L338.604 311.841L353.364 294.715L314.091 257.226C321.345 247.018 325.609 234.539 325.609 221.063C325.609 186.545 297.627 158.563 263.109 158.563C228.592 158.563 200.609 186.545 200.609 221.063C200.609 255.581 228.592 283.563 263.109 283.563ZM316.418 221.063C316.418 250.286 292.728 273.977 263.505 273.977C234.282 273.977 210.592 250.286 210.592 221.063C210.592 191.84 234.282 168.15 263.505 168.15C292.728 168.15 316.418 191.84 316.418 221.063Z" fill="#CCC6D9"/>
<g filter="url(#filter3_b_1313_1495)">
<path d="M263.5 275C293.6 275 318 250.823 318 221C318 191.177 293.6 167 263.5 167C233.4 167 209 191.177 209 221C209 250.823 233.4 275 263.5 275Z" fill="white" fill-opacity="0.3"/>
</g>
<path d="M272.923 221L286.112 207.862C287.348 206.562 288.025 204.835 287.999 203.047C287.974 201.259 287.248 199.552 285.976 198.287C284.704 197.023 282.986 196.301 281.187 196.276C279.388 196.251 277.65 196.923 276.342 198.151L263.124 211.289L249.935 198.151C249.3 197.484 248.537 196.95 247.691 196.58C246.845 196.211 245.933 196.014 245.009 196.001C244.085 195.988 243.168 196.159 242.312 196.504C241.456 196.85 240.678 197.362 240.024 198.012C239.371 198.661 238.855 199.434 238.508 200.285C238.16 201.136 237.988 202.048 238.001 202.967C238.014 203.885 238.212 204.791 238.584 205.632C238.955 206.473 239.493 207.231 240.165 207.862L253.376 221L240.165 234.138C239.493 234.769 238.955 235.527 238.584 236.368C238.212 237.209 238.014 238.115 238.001 239.033C237.988 239.952 238.16 240.863 238.508 241.715C238.855 242.566 239.371 243.339 240.024 243.988C240.678 244.637 241.456 245.15 242.312 245.496C243.168 245.841 244.085 246.012 245.009 245.999C245.933 245.986 246.845 245.789 247.691 245.42C248.537 245.05 249.3 244.516 249.935 243.849L263.153 230.711L276.372 243.849C277.692 245.004 279.405 245.616 281.164 245.559C282.922 245.503 284.592 244.782 285.834 243.544C287.076 242.305 287.796 240.643 287.848 238.896C287.9 237.148 287.279 235.446 286.112 234.138L272.923 221Z" fill="black"/>
<path d="M338.601 311.843L353.361 294.717L355.584 296.84C357.742 298.899 359.033 301.775 359.175 304.836C359.316 307.898 358.297 310.893 356.34 313.163V313.163C354.384 315.433 351.65 316.792 348.742 316.941C345.833 317.09 342.987 316.017 340.83 313.958L338.607 311.836L338.601 311.843Z" fill="#E1DCEB"/>
<path fill-rule="evenodd" clip-rule="evenodd" d="M134.314 149.172C134.296 147.746 134.117 146.307 133.759 144.859C132.504 139.777 126.906 136.514 120.948 135.747C114.993 134.98 108.799 136.726 106.412 141.147C105.047 143.674 104.859 145.852 105.417 147.689C105.972 149.516 107.29 151.03 109.079 152.211C114.067 155.498 122.803 156.169 126.789 154.795C128.632 154.158 130.433 153.391 132.186 152.513C131.184 158.259 127.448 163.702 122.462 168.607C111.626 179.268 94.8117 187.36 85.6546 190.335C85.1626 190.495 84.8895 191.04 85.0425 191.554C85.1955 192.068 85.7181 192.356 86.2101 192.196C95.5485 189.162 112.69 180.898 123.74 170.026C129.449 164.411 133.516 158.089 134.211 151.443C147.116 144.242 157.713 131.177 166.774 120.181C167.111 119.776 167.066 119.159 166.675 118.807C166.284 118.458 165.696 118.502 165.359 118.91C156.668 129.456 146.581 142 134.314 149.172ZM132.438 150.217C132.509 148.614 132.358 146.986 131.951 145.344C130.866 140.945 125.878 138.344 120.72 137.68C117.559 137.274 114.308 137.609 111.758 138.799C110.155 139.546 108.835 140.63 108.039 142.105C106.994 144.04 106.768 145.695 107.196 147.099C107.625 148.513 108.689 149.649 110.075 150.561C114.621 153.558 122.575 154.195 126.203 152.943C128.342 152.206 130.419 151.286 132.438 150.217Z" fill="black"/>
<circle cx="363" cy="242" r="6" fill="#E3E3E3"/>
<path fill-rule="evenodd" clip-rule="evenodd" d="M136.384 283.394C137.455 282.993 138.582 282.459 139.451 281.686C140.483 280.769 140.902 279.587 141.184 278.343C141.546 276.744 141.691 275.042 142.129 273.441C142.292 272.846 142.605 272.621 142.739 272.522C143.078 272.27 143.421 272.202 143.743 272.228C144.125 272.257 144.65 272.409 144.995 273.083C145.045 273.18 145.109 273.327 145.152 273.528C145.183 273.676 145.203 274.137 145.237 274.328C145.32 274.797 145.389 275.266 145.454 275.737C145.672 277.306 145.797 278.639 146.483 280.081C147.414 282.038 148.347 283.235 149.612 283.766C150.835 284.279 152.298 284.182 154.167 283.78C154.345 283.735 154.521 283.696 154.695 283.664C155.519 283.513 156.307 284.082 156.469 284.946C156.63 285.809 156.107 286.65 155.29 286.84C155.12 286.88 154.952 286.917 154.785 286.952C152.26 287.61 149.336 289.958 147.637 292.014C147.113 292.648 146.347 294.421 145.565 295.551C144.987 296.386 144.339 296.935 143.794 297.13C143.429 297.261 143.121 297.24 142.867 297.174C142.498 297.079 142.192 296.868 141.957 296.533C141.829 296.35 141.71 296.104 141.653 295.791C141.626 295.64 141.623 295.257 141.624 295.083C141.464 294.506 141.269 293.943 141.127 293.36C140.788 291.971 140.123 291.092 139.333 289.93C138.593 288.843 137.8 288.159 136.636 287.614C136.485 287.575 135.263 287.26 134.832 287.08C134.202 286.815 133.901 286.371 133.792 286.132C133.607 285.727 133.588 285.373 133.625 285.077C133.68 284.641 133.866 284.268 134.195 283.967C134.4 283.78 134.705 283.598 135.114 283.509C135.429 283.44 136.267 283.4 136.384 283.394ZM143.55 281.13C143.607 281.263 143.667 281.396 143.731 281.531C145.095 284.397 146.62 285.998 148.473 286.774L148.536 286.799C147.296 287.768 146.173 288.851 145.315 289.889C144.962 290.317 144.494 291.205 143.989 292.115C143.53 290.545 142.779 289.435 141.835 288.045C141.114 286.985 140.358 286.187 139.43 285.537C140.15 285.148 140.838 284.692 141.437 284.16C142.433 283.273 143.093 282.246 143.55 281.13Z" fill="#CCC6D9"/>
</g>
<path d="M134.521 433L131.017 426.64H130.033V433H125.929V416.152H132.817C134.145 416.152 135.273 416.384 136.201 416.848C137.145 417.312 137.849 417.952 138.313 418.768C138.777 419.568 139.009 420.464 139.009 421.456C139.009 422.576 138.689 423.576 138.049 424.456C137.425 425.336 136.497 425.96 135.265 426.328L139.153 433H134.521ZM130.033 423.736H132.577C133.329 423.736 133.889 423.552 134.257 423.184C134.641 422.816 134.833 422.296 134.833 421.624C134.833 420.984 134.641 420.48 134.257 420.112C133.889 419.744 133.329 419.56 132.577 419.56H130.033V423.736ZM154.21 426.088C154.21 426.472 154.186 426.872 154.138 427.288H144.85C144.914 428.12 145.178 428.76 145.642 429.208C146.122 429.64 146.706 429.856 147.394 429.856C148.418 429.856 149.13 429.424 149.53 428.56H153.898C153.674 429.44 153.266 430.232 152.674 430.936C152.098 431.64 151.37 432.192 150.49 432.592C149.61 432.992 148.626 433.192 147.538 433.192C146.226 433.192 145.058 432.912 144.034 432.352C143.01 431.792 142.21 430.992 141.634 429.952C141.058 428.912 140.77 427.696 140.77 426.304C140.77 424.912 141.05 423.696 141.61 422.656C142.186 421.616 142.986 420.816 144.01 420.256C145.034 419.696 146.21 419.416 147.538 419.416C148.834 419.416 149.986 419.688 150.994 420.232C152.002 420.776 152.786 421.552 153.346 422.56C153.922 423.568 154.21 424.744 154.21 426.088ZM150.01 425.008C150.01 424.304 149.77 423.744 149.29 423.328C148.81 422.912 148.21 422.704 147.49 422.704C146.802 422.704 146.218 422.904 145.738 423.304C145.274 423.704 144.986 424.272 144.874 425.008H150.01ZM161.823 433.192C160.655 433.192 159.615 432.992 158.703 432.592C157.791 432.192 157.071 431.648 156.543 430.96C156.015 430.256 155.719 429.472 155.655 428.608H159.711C159.759 429.072 159.975 429.448 160.359 429.736C160.743 430.024 161.215 430.168 161.775 430.168C162.287 430.168 162.679 430.072 162.951 429.88C163.239 429.672 163.383 429.408 163.383 429.088C163.383 428.704 163.183 428.424 162.783 428.248C162.383 428.056 161.735 427.848 160.839 427.624C159.879 427.4 159.079 427.168 158.439 426.928C157.799 426.672 157.247 426.28 156.783 425.752C156.319 425.208 156.087 424.48 156.087 423.568C156.087 422.8 156.295 422.104 156.711 421.48C157.143 420.84 157.767 420.336 158.583 419.968C159.415 419.6 160.399 419.416 161.535 419.416C163.215 419.416 164.535 419.832 165.495 420.664C166.471 421.496 167.031 422.6 167.175 423.976H163.383C163.319 423.512 163.111 423.144 162.759 422.872C162.423 422.6 161.975 422.464 161.415 422.464C160.935 422.464 160.567 422.56 160.311 422.752C160.055 422.928 159.927 423.176 159.927 423.496C159.927 423.88 160.127 424.168 160.527 424.36C160.943 424.552 161.583 424.744 162.447 424.936C163.439 425.192 164.247 425.448 164.871 425.704C165.495 425.944 166.039 426.344 166.503 426.904C166.983 427.448 167.231 428.184 167.247 429.112C167.247 429.896 167.023 430.6 166.575 431.224C166.143 431.832 165.511 432.312 164.679 432.664C163.863 433.016 162.911 433.192 161.823 433.192ZM182.982 419.608V433H178.878V431.176C178.462 431.768 177.894 432.248 177.174 432.616C176.47 432.968 175.686 433.144 174.822 433.144C173.798 433.144 172.894 432.92 172.11 432.472C171.326 432.008 170.718 431.344 170.286 430.48C169.854 429.616 169.638 428.6 169.638 427.432V419.608H173.718V426.88C173.718 427.776 173.95 428.472 174.414 428.968C174.878 429.464 175.502 429.712 176.286 429.712C177.086 429.712 177.718 429.464 178.182 428.968C178.646 428.472 178.878 427.776 178.878 426.88V419.608H182.982ZM190.033 415.24V433H185.929V415.24H190.033ZM200.472 429.52V433H198.384C196.896 433 195.736 432.64 194.904 431.92C194.072 431.184 193.656 429.992 193.656 428.344V423.016H192.024V419.608H193.656V416.344H197.76V419.608H200.448V423.016H197.76V428.392C197.76 428.792 197.856 429.08 198.048 429.256C198.24 429.432 198.56 429.52 199.008 429.52H200.472ZM222.915 433H218.811L211.947 422.608V433H207.843V416.152H211.947L218.811 426.592V416.152H222.915V433ZM231.986 433.192C230.674 433.192 229.49 432.912 228.434 432.352C227.394 431.792 226.57 430.992 225.962 429.952C225.37 428.912 225.074 427.696 225.074 426.304C225.074 424.928 225.378 423.72 225.986 422.68C226.594 421.624 227.426 420.816 228.482 420.256C229.538 419.696 230.722 419.416 232.034 419.416C233.346 419.416 234.53 419.696 235.586 420.256C236.642 420.816 237.474 421.624 238.082 422.68C238.69 423.72 238.994 424.928 238.994 426.304C238.994 427.68 238.682 428.896 238.058 429.952C237.45 430.992 236.61 431.792 235.538 432.352C234.482 432.912 233.298 433.192 231.986 433.192ZM231.986 429.64C232.77 429.64 233.434 429.352 233.978 428.776C234.538 428.2 234.818 427.376 234.818 426.304C234.818 425.232 234.546 424.408 234.002 423.832C233.474 423.256 232.818 422.968 232.034 422.968C231.234 422.968 230.57 423.256 230.042 423.832C229.514 424.392 229.25 425.216 229.25 426.304C229.25 427.376 229.506 428.2 230.018 428.776C230.546 429.352 231.202 429.64 231.986 429.64ZM248.636 429.52V433H246.548C245.06 433 243.9 432.64 243.068 431.92C242.236 431.184 241.82 429.992 241.82 428.344V423.016H240.188V419.608H241.82V416.344H245.924V419.608H248.612V423.016H245.924V428.392C245.924 428.792 246.02 429.08 246.212 429.256C246.404 429.432 246.724 429.52 247.172 429.52H248.636ZM266.976 416.152V419.44H260.112V422.992H265.248V426.184H260.112V433H256.008V416.152H266.976ZM275.229 433.192C273.917 433.192 272.733 432.912 271.677 432.352C270.637 431.792 269.813 430.992 269.205 429.952C268.613 428.912 268.317 427.696 268.317 426.304C268.317 424.928 268.621 423.72 269.229 422.68C269.837 421.624 270.669 420.816 271.725 420.256C272.781 419.696 273.965 419.416 275.277 419.416C276.589 419.416 277.773 419.696 278.829 420.256C279.885 420.816 280.717 421.624 281.325 422.68C281.933 423.72 282.237 424.928 282.237 426.304C282.237 427.68 281.925 428.896 281.301 429.952C280.693 430.992 279.853 431.792 278.781 432.352C277.725 432.912 276.541 433.192 275.229 433.192ZM275.229 429.64C276.013 429.64 276.677 429.352 277.221 428.776C277.781 428.2 278.061 427.376 278.061 426.304C278.061 425.232 277.789 424.408 277.245 423.832C276.717 423.256 276.061 422.968 275.277 422.968C274.477 422.968 273.813 423.256 273.285 423.832C272.757 424.392 272.493 425.216 272.493 426.304C272.493 427.376 272.749 428.2 273.261 428.776C273.789 429.352 274.445 429.64 275.229 429.64ZM297.638 419.608V433H293.534V431.176C293.118 431.768 292.55 432.248 291.83 432.616C291.126 432.968 290.342 433.144 289.478 433.144C288.454 433.144 287.55 432.92 286.766 432.472C285.982 432.008 285.374 431.344 284.942 430.48C284.51 429.616 284.294 428.6 284.294 427.432V419.608H288.374V426.88C288.374 427.776 288.606 428.472 289.07 428.968C289.534 429.464 290.158 429.712 290.942 429.712C291.742 429.712 292.374 429.464 292.838 428.968C293.302 428.472 293.534 427.776 293.534 426.88V419.608H297.638ZM308.746 419.464C310.314 419.464 311.562 419.976 312.49 421C313.434 422.008 313.906 423.4 313.906 425.176V433H309.826V425.728C309.826 424.832 309.594 424.136 309.13 423.64C308.666 423.144 308.042 422.896 307.258 422.896C306.474 422.896 305.85 423.144 305.386 423.64C304.922 424.136 304.69 424.832 304.69 425.728V433H300.586V419.608H304.69V421.384C305.106 420.792 305.666 420.328 306.37 419.992C307.074 419.64 307.866 419.464 308.746 419.464ZM315.942 426.28C315.942 424.904 316.198 423.696 316.71 422.656C317.238 421.616 317.95 420.816 318.846 420.256C319.742 419.696 320.742 419.416 321.846 419.416C322.726 419.416 323.526 419.6 324.246 419.968C324.982 420.336 325.558 420.832 325.974 421.456V415.24H330.078V433H325.974V431.08C325.59 431.72 325.038 432.232 324.318 432.616C323.614 433 322.79 433.192 321.846 433.192C320.742 433.192 319.742 432.912 318.846 432.352C317.95 431.776 317.238 430.968 316.71 429.928C316.198 428.872 315.942 427.656 315.942 426.28ZM325.974 426.304C325.974 425.28 325.686 424.472 325.11 423.88C324.55 423.288 323.862 422.992 323.046 422.992C322.23 422.992 321.534 423.288 320.958 423.88C320.398 424.456 320.118 425.256 320.118 426.28C320.118 427.304 320.398 428.12 320.958 428.728C321.534 429.32 322.23 429.616 323.046 429.616C323.862 429.616 324.55 429.32 325.11 428.728C325.686 428.136 325.974 427.328 325.974 426.304Z" fill="#303030"/>
<path d="M100.729 469.016L102.777 469L105.257 460.584L107.593 469H109.657L112.953 457.88H111.001L108.681 466.888L106.361 457.88H104.313L101.817 466.936L99.5134 457.88H97.5774L100.729 469.016ZM114.458 469H116.282V464.072C116.282 462.456 117.162 461.624 118.506 461.624C119.834 461.624 120.714 462.456 120.714 464.072V469H122.522V463.8C122.522 461.336 120.986 460.04 119.018 460.04C117.882 460.04 116.89 460.472 116.282 461.208V457.16H114.458V469ZM133.248 464.584C133.248 461.816 131.264 460.04 128.752 460.04C126.24 460.04 124.256 461.816 124.256 464.584C124.256 467.352 126.16 469.144 128.672 469.144C131.2 469.144 133.248 467.352 133.248 464.584ZM126.112 464.584C126.112 462.584 127.344 461.624 128.72 461.624C130.08 461.624 131.376 462.584 131.376 464.584C131.376 466.584 130.032 467.56 128.672 467.56C127.296 467.56 126.112 466.584 126.112 464.584ZM143.452 464.584C143.452 461.816 141.468 460.04 138.956 460.04C136.444 460.04 134.46 461.816 134.46 464.584C134.46 467.352 136.364 469.144 138.876 469.144C141.404 469.144 143.452 467.352 143.452 464.584ZM136.316 464.584C136.316 462.584 137.548 461.624 138.924 461.624C140.284 461.624 141.58 462.584 141.58 464.584C141.58 466.584 140.236 467.56 138.876 467.56C137.5 467.56 136.316 466.584 136.316 464.584ZM147.079 461.48V460.184H145.255V473.192H147.079V467.72C147.655 468.408 148.695 469.144 150.151 469.144C152.471 469.144 154.295 467.272 154.295 464.552C154.295 461.832 152.471 460.04 150.151 460.04C148.711 460.04 147.639 460.744 147.079 461.48ZM152.439 464.552C152.439 466.456 151.127 467.56 149.751 467.56C148.391 467.56 147.079 466.488 147.079 464.584C147.079 462.696 148.391 461.624 149.751 461.624C151.127 461.624 152.439 462.648 152.439 464.552ZM162.674 466.536C162.578 463.352 157.602 464.344 157.602 462.568C157.602 461.976 158.114 461.576 159.09 461.576C160.082 461.576 160.674 462.104 160.738 462.872H162.562C162.466 461.112 161.154 460.04 159.154 460.04C157.074 460.04 155.762 461.176 155.762 462.584C155.762 465.816 160.882 464.824 160.882 466.552C160.882 467.16 160.322 467.608 159.266 467.608C158.258 467.608 157.57 467.016 157.506 466.296H155.618C155.698 467.896 157.186 469.144 159.298 469.144C161.378 469.144 162.674 468.024 162.674 466.536ZM170.69 467.944C170.69 467.288 170.178 466.776 169.538 466.776C168.882 466.776 168.37 467.288 168.37 467.944C168.37 468.6 168.882 469.112 169.538 469.112C170.178 469.112 170.69 468.6 170.69 467.944ZM174.549 467.944C174.549 467.288 174.037 466.776 173.397 466.776C172.741 466.776 172.229 467.288 172.229 467.944C172.229 468.6 172.741 469.112 173.397 469.112C174.037 469.112 174.549 468.6 174.549 467.944ZM178.408 467.944C178.408 467.288 177.896 466.776 177.256 466.776C176.6 466.776 176.088 467.288 176.088 467.944C176.088 468.6 176.6 469.112 177.256 469.112C177.896 469.112 178.408 468.6 178.408 467.944ZM184.824 466.552C184.824 468.344 185.8 469 187.368 469H188.808V467.48H187.688C186.92 467.48 186.664 467.208 186.664 466.552V461.672H188.808V460.184H186.664V457.992H184.824V460.184H183.784V461.672H184.824V466.552ZM190.489 469H192.313V464.072C192.313 462.456 193.193 461.624 194.537 461.624C195.865 461.624 196.745 462.456 196.745 464.072V469H198.553V463.8C198.553 461.336 197.017 460.04 195.049 460.04C193.913 460.04 192.921 460.472 192.313 461.208V457.16H190.489V469ZM200.88 469H202.704V460.184H200.88V469ZM201.808 459.016C202.448 459.016 202.96 458.504 202.96 457.848C202.96 457.192 202.448 456.68 201.808 456.68C201.152 456.68 200.64 457.192 200.64 457.848C200.64 458.504 201.152 459.016 201.808 459.016ZM211.674 466.536C211.578 463.352 206.602 464.344 206.602 462.568C206.602 461.976 207.114 461.576 208.09 461.576C209.082 461.576 209.674 462.104 209.738 462.872H211.562C211.466 461.112 210.154 460.04 208.154 460.04C206.074 460.04 204.762 461.176 204.762 462.584C204.762 465.816 209.882 464.824 209.882 466.552C209.882 467.16 209.322 467.608 208.266 467.608C207.258 467.608 206.57 467.016 206.506 466.296H204.618C204.698 467.896 206.186 469.144 208.298 469.144C210.378 469.144 211.674 468.024 211.674 466.536ZM217.802 469H219.626V460.184H217.802V469ZM218.73 459.016C219.37 459.016 219.882 458.504 219.882 457.848C219.882 457.192 219.37 456.68 218.73 456.68C218.074 456.68 217.562 457.192 217.562 457.848C217.562 458.504 218.074 459.016 218.73 459.016ZM228.276 469H230.084V463.8C230.084 461.336 228.532 460.04 226.468 460.04C225.412 460.04 224.436 460.472 223.844 461.192V460.184H222.02V469H223.844V464.072C223.844 462.456 224.724 461.624 226.068 461.624C227.396 461.624 228.276 462.456 228.276 464.072V469ZM232.635 469H234.475V461.672H236.107V460.184H234.475V459.56C234.475 458.552 234.859 458.168 235.979 458.168V456.648C233.675 456.648 232.635 457.528 232.635 459.56V460.184H231.595V461.672H232.635V469ZM246.123 464.584C246.123 461.816 244.139 460.04 241.627 460.04C239.115 460.04 237.131 461.816 237.131 464.584C237.131 467.352 239.035 469.144 241.547 469.144C244.075 469.144 246.123 467.352 246.123 464.584ZM238.987 464.584C238.987 462.584 240.219 461.624 241.595 461.624C242.955 461.624 244.251 462.584 244.251 464.584C244.251 466.584 242.907 467.56 241.547 467.56C240.171 467.56 238.987 466.584 238.987 464.584ZM249.751 464.36C249.751 462.488 250.583 461.928 251.927 461.928H252.391V460.04C251.143 460.04 250.263 460.584 249.751 461.464V460.184H247.927V469H249.751V464.36ZM266.563 469H268.371V463.8C268.371 461.336 266.803 460.04 264.739 460.04C263.459 460.04 262.211 460.712 261.667 461.784C261.059 460.632 259.891 460.04 258.499 460.04C257.443 460.04 256.483 460.472 255.891 461.192V460.184H254.067V469H255.891V464.072C255.891 462.456 256.771 461.624 258.115 461.624C259.443 461.624 260.323 462.456 260.323 464.072V469H262.131V464.072C262.131 462.456 263.011 461.624 264.355 461.624C265.683 461.624 266.563 462.456 266.563 464.072V469ZM270.084 464.552C270.084 467.272 271.924 469.144 274.212 469.144C275.684 469.144 276.74 468.44 277.3 467.688V469H279.14V460.184H277.3V461.464C276.756 460.744 275.732 460.04 274.244 460.04C271.924 460.04 270.084 461.832 270.084 464.552ZM277.3 464.584C277.3 466.488 276.004 467.56 274.628 467.56C273.268 467.56 271.956 466.456 271.956 464.552C271.956 462.648 273.268 461.624 274.628 461.624C276.004 461.624 277.3 462.696 277.3 464.584ZM281.824 466.552C281.824 468.344 282.8 469 284.368 469H285.808V467.48H284.688C283.92 467.48 283.664 467.208 283.664 466.552V461.672H285.808V460.184H283.664V457.992H281.824V460.184H280.784V461.672H281.824V466.552ZM287.489 469H289.313V460.184H287.489V469ZM288.417 459.016C289.057 459.016 289.569 458.504 289.569 457.848C289.569 457.192 289.057 456.68 288.417 456.68C287.761 456.68 287.249 457.192 287.249 457.848C287.249 458.504 287.761 459.016 288.417 459.016ZM300.108 464.584C300.108 461.816 298.124 460.04 295.612 460.04C293.1 460.04 291.116 461.816 291.116 464.584C291.116 467.352 293.02 469.144 295.532 469.144C298.06 469.144 300.108 467.352 300.108 464.584ZM292.972 464.584C292.972 462.584 294.204 461.624 295.58 461.624C296.94 461.624 298.236 462.584 298.236 464.584C298.236 466.584 296.892 467.56 295.532 467.56C294.156 467.56 292.972 466.584 292.972 464.584ZM308.167 469H309.975V463.8C309.975 461.336 308.423 460.04 306.359 460.04C305.303 460.04 304.327 460.472 303.735 461.192V460.184H301.911V469H303.735V464.072C303.735 462.456 304.615 461.624 305.959 461.624C307.287 461.624 308.167 462.456 308.167 464.072V469ZM316.458 469H318.282V460.184H316.458V469ZM317.386 459.016C318.026 459.016 318.538 458.504 318.538 457.848C318.538 457.192 318.026 456.68 317.386 456.68C316.73 456.68 316.218 457.192 316.218 457.848C316.218 458.504 316.73 459.016 317.386 459.016ZM327.253 466.536C327.157 463.352 322.181 464.344 322.181 462.568C322.181 461.976 322.693 461.576 323.669 461.576C324.661 461.576 325.253 462.104 325.317 462.872H327.141C327.045 461.112 325.733 460.04 323.733 460.04C321.653 460.04 320.341 461.176 320.341 462.584C320.341 465.816 325.461 464.824 325.461 466.552C325.461 467.16 324.901 467.608 323.845 467.608C322.837 467.608 322.149 467.016 322.085 466.296H320.197C320.277 467.896 321.765 469.144 323.877 469.144C325.957 469.144 327.253 468.024 327.253 466.536ZM339.636 469H341.444V463.8C341.444 461.336 339.892 460.04 337.828 460.04C336.772 460.04 335.796 460.472 335.204 461.192V460.184H333.38V469H335.204V464.072C335.204 462.456 336.084 461.624 337.428 461.624C338.756 461.624 339.636 462.456 339.636 464.072V469ZM352.17 464.584C352.17 461.816 350.186 460.04 347.674 460.04C345.162 460.04 343.178 461.816 343.178 464.584C343.178 467.352 345.082 469.144 347.594 469.144C350.122 469.144 352.17 467.352 352.17 464.584ZM345.034 464.584C345.034 462.584 346.266 461.624 347.642 461.624C349.002 461.624 350.298 462.584 350.298 464.584C350.298 466.584 348.954 467.56 347.594 467.56C346.218 467.56 345.034 466.584 345.034 464.584ZM354.261 466.552C354.261 468.344 355.237 469 356.805 469H358.245V467.48H357.125C356.357 467.48 356.101 467.208 356.101 466.552V461.672H358.245V460.184H356.101V457.992H354.261V460.184H353.221V461.672H354.261V466.552ZM133.709 488.552C133.709 491.272 135.549 493.144 137.837 493.144C139.309 493.144 140.365 492.44 140.925 491.688V493H142.765V484.184H140.925V485.464C140.381 484.744 139.357 484.04 137.869 484.04C135.549 484.04 133.709 485.832 133.709 488.552ZM140.925 488.584C140.925 490.488 139.629 491.56 138.253 491.56C136.893 491.56 135.581 490.456 135.581 488.552C135.581 486.648 136.893 485.624 138.253 485.624C139.629 485.624 140.925 486.696 140.925 488.584ZM144.121 484.184L147.465 493H149.641L153.001 484.184H151.065L148.569 491.368L146.073 484.184H144.121ZM153.772 488.552C153.772 491.272 155.612 493.144 157.9 493.144C159.372 493.144 160.428 492.44 160.988 491.688V493H162.828V484.184H160.988V485.464C160.444 484.744 159.42 484.04 157.932 484.04C155.612 484.04 153.772 485.832 153.772 488.552ZM160.988 488.584C160.988 490.488 159.692 491.56 158.316 491.56C156.956 491.56 155.644 490.456 155.644 488.552C155.644 486.648 156.956 485.624 158.316 485.624C159.692 485.624 160.988 486.696 160.988 488.584ZM165.223 493H167.047V484.184H165.223V493ZM166.151 483.016C166.791 483.016 167.303 482.504 167.303 481.848C167.303 481.192 166.791 480.68 166.151 480.68C165.495 480.68 164.983 481.192 164.983 481.848C164.983 482.504 165.495 483.016 166.151 483.016ZM169.442 493H171.266V481.16H169.442V493ZM173.053 488.552C173.053 491.272 174.893 493.144 177.181 493.144C178.653 493.144 179.709 492.44 180.269 491.688V493H182.109V484.184H180.269V485.464C179.725 484.744 178.701 484.04 177.213 484.04C174.893 484.04 173.053 485.832 173.053 488.552ZM180.269 488.584C180.269 490.488 178.973 491.56 177.597 491.56C176.237 491.56 174.925 490.456 174.925 488.552C174.925 486.648 176.237 485.624 177.597 485.624C178.973 485.624 180.269 486.696 180.269 488.584ZM186.329 485.496V481.16H184.505V493H186.329V491.72C186.905 492.488 187.945 493.144 189.401 493.144C191.721 493.144 193.545 491.272 193.545 488.552C193.545 485.832 191.737 484.04 189.401 484.04C188.009 484.04 186.905 484.696 186.329 485.496ZM191.689 488.552C191.689 490.456 190.377 491.56 189.001 491.56C187.641 491.56 186.329 490.488 186.329 488.584C186.329 486.696 187.641 485.624 189.001 485.624C190.377 485.624 191.689 486.648 191.689 488.552ZM195.348 493H197.172V481.16H195.348V493ZM203.279 485.576C204.639 485.576 205.711 486.44 205.743 487.8H200.863C201.055 486.408 202.047 485.576 203.279 485.576ZM207.407 490.376H205.439C205.103 491.064 204.479 491.608 203.359 491.608C202.015 491.608 200.975 490.728 200.847 489.272H207.583C207.631 488.968 207.647 488.68 207.647 488.376C207.647 485.784 205.871 484.04 203.359 484.04C200.751 484.04 198.959 485.816 198.959 488.584C198.959 491.352 200.831 493.144 203.359 493.144C205.519 493.144 206.911 491.912 207.407 490.376ZM213.822 493H215.662V485.672H217.294V484.184H215.662V483.56C215.662 482.552 216.046 482.168 217.166 482.168V480.648C214.862 480.648 213.822 481.528 213.822 483.56V484.184H212.782V485.672H213.822V493ZM227.311 488.584C227.311 485.816 225.327 484.04 222.815 484.04C220.303 484.04 218.319 485.816 218.319 488.584C218.319 491.352 220.223 493.144 222.735 493.144C225.263 493.144 227.311 491.352 227.311 488.584ZM220.175 488.584C220.175 486.584 221.407 485.624 222.783 485.624C224.143 485.624 225.439 486.584 225.439 488.584C225.439 490.584 224.095 491.56 222.735 491.56C221.359 491.56 220.175 490.584 220.175 488.584ZM230.938 488.36C230.938 486.488 231.77 485.928 233.114 485.928H233.578V484.04C232.33 484.04 231.45 484.584 230.938 485.464V484.184H229.114V493H230.938V488.36ZM238.803 488.552C238.803 491.272 240.643 493.144 242.931 493.144C244.403 493.144 245.459 492.44 246.019 491.688V493H247.859V484.184H246.019V485.464C245.475 484.744 244.451 484.04 242.963 484.04C240.643 484.04 238.803 485.832 238.803 488.552ZM246.019 488.584C246.019 490.488 244.723 491.56 243.347 491.56C241.987 491.56 240.675 490.456 240.675 488.552C240.675 486.648 241.987 485.624 243.347 485.624C244.723 485.624 246.019 486.696 246.019 488.584ZM266.907 493H268.715V487.8C268.715 485.336 267.147 484.04 265.083 484.04C263.803 484.04 262.555 484.712 262.011 485.784C261.403 484.632 260.235 484.04 258.843 484.04C257.787 484.04 256.827 484.472 256.235 485.192V484.184H254.411V493H256.235V488.072C256.235 486.456 257.115 485.624 258.459 485.624C259.787 485.624 260.667 486.456 260.667 488.072V493H262.475V488.072C262.475 486.456 263.355 485.624 264.699 485.624C266.027 485.624 266.907 486.456 266.907 488.072V493ZM279.436 488.584C279.436 485.816 277.452 484.04 274.94 484.04C272.428 484.04 270.444 485.816 270.444 488.584C270.444 491.352 272.348 493.144 274.86 493.144C277.388 493.144 279.436 491.352 279.436 488.584ZM272.3 488.584C272.3 486.584 273.532 485.624 274.908 485.624C276.268 485.624 277.564 486.584 277.564 488.584C277.564 490.584 276.22 491.56 274.86 491.56C273.484 491.56 272.3 490.584 272.3 488.584ZM293.735 493H295.543V487.8C295.543 485.336 293.975 484.04 291.911 484.04C290.631 484.04 289.383 484.712 288.839 485.784C288.231 484.632 287.063 484.04 285.671 484.04C284.615 484.04 283.655 484.472 283.063 485.192V484.184H281.239V493H283.063V488.072C283.063 486.456 283.943 485.624 285.287 485.624C286.615 485.624 287.495 486.456 287.495 488.072V493H289.303V488.072C289.303 486.456 290.183 485.624 291.527 485.624C292.855 485.624 293.735 486.456 293.735 488.072V493ZM301.576 485.576C302.936 485.576 304.008 486.44 304.04 487.8H299.16C299.352 486.408 300.344 485.576 301.576 485.576ZM305.704 490.376H303.736C303.4 491.064 302.776 491.608 301.656 491.608C300.312 491.608 299.272 490.728 299.144 489.272H305.88C305.928 488.968 305.944 488.68 305.944 488.376C305.944 485.784 304.168 484.04 301.656 484.04C299.048 484.04 297.256 485.816 297.256 488.584C297.256 491.352 299.128 493.144 301.656 493.144C303.816 493.144 305.208 491.912 305.704 490.376ZM313.995 493H315.803V487.8C315.803 485.336 314.251 484.04 312.187 484.04C311.131 484.04 310.155 484.472 309.563 485.192V484.184H307.739V493H309.563V488.072C309.563 486.456 310.443 485.624 311.787 485.624C313.115 485.624 313.995 486.456 313.995 488.072V493ZM318.418 490.552C318.418 492.344 319.394 493 320.962 493H322.402V491.48H321.282C320.514 491.48 320.258 491.208 320.258 490.552V485.672H322.402V484.184H320.258V481.992H318.418V484.184H317.378V485.672H318.418V490.552Z" fill="#9E9E9E"/>
</g>
<defs>
<filter id="filter0_d_1313_1495" x="0" y="0" width="456" height="597" filterUnits="userSpaceOnUse" color-interpolation-filters="sRGB">
<feFlood flood-opacity="0" result="BackgroundImageFix"/>
<feColorMatrix in="SourceAlpha" type="matrix" values="0 0 0 0 0 0 0 0 0 0 0 0 0 0 0 0 0 0 127 0" result="hardAlpha"/>
<feOffset dy="20"/>
<feGaussianBlur stdDeviation="15"/>
<feComposite in2="hardAlpha" operator="out"/>
<feColorMatrix type="matrix" values="0 0 0 0 0.570833 0 0 0 0 0.570833 0 0 0 0 0.570833 0 0 0 0.19 0"/>
<feBlend mode="normal" in2="BackgroundImageFix" result="effect1_dropShadow_1313_1495"/>
<feBlend mode="normal" in="SourceGraphic" in2="effect1_dropShadow_1313_1495" result="shape"/>
</filter>
<filter id="filter1_d_1313_1495" x="137" y="111.556" width="184.537" height="215.029" filterUnits="userSpaceOnUse" color-interpolation-filters="sRGB">
<feFlood flood-opacity="0" result="BackgroundImageFix"/>
<feColorMatrix in="SourceAlpha" type="matrix" values="0 0 0 0 0 0 0 0 0 0 0 0 0 0 0 0 0 0 127 0" result="hardAlpha"/>
<feOffset dy="20"/>
<feGaussianBlur stdDeviation="15"/>
<feComposite in2="hardAlpha" operator="out"/>
<feColorMatrix type="matrix" values="0 0 0 0 0.570833 0 0 0 0 0.570833 0 0 0 0 0.570833 0 0 0 0.19 0"/>
<feBlend mode="normal" in2="BackgroundImageFix" result="effect1_dropShadow_1313_1495"/>
<feBlend mode="normal" in="SourceGraphic" in2="effect1_dropShadow_1313_1495" result="shape"/>
</filter>
<filter id="filter2_d_1313_1495" x="294" y="95.4241" width="96.2192" height="66.3889" filterUnits="userSpaceOnUse" color-interpolation-filters="sRGB">
<feFlood flood-opacity="0" result="BackgroundImageFix"/>
<feColorMatrix in="SourceAlpha" type="matrix" values="0 0 0 0 0 0 0 0 0 0 0 0 0 0 0 0 0 0 127 0" result="hardAlpha"/>
<feOffset dx="6" dy="4"/>
<feGaussianBlur stdDeviation="6.5"/>
<feComposite in2="hardAlpha" operator="out"/>
<feColorMatrix type="matrix" values="0 0 0 0 0.104618 0 0 0 0 0.465612 0 0 0 0 0.545833 0 0 0 0.09 0"/>
<feBlend mode="normal" in2="BackgroundImageFix" result="effect1_dropShadow_1313_1495"/>
<feBlend mode="normal" in="SourceGraphic" in2="effect1_dropShadow_1313_1495" result="shape"/>
</filter>
<filter id="filter3_b_1313_1495" x="201" y="159" width="125" height="124" filterUnits="userSpaceOnUse" color-interpolation-filters="sRGB">
<feFlood flood-opacity="0" result="BackgroundImageFix"/>
<feGaussianBlur in="BackgroundImage" stdDeviation="4"/>
<feComposite in2="SourceAlpha" operator="in" result="effect1_backgroundBlur_1313_1495"/>
<feBlend mode="normal" in="SourceGraphic" in2="effect1_backgroundBlur_1313_1495" result="shape"/>
</filter>
<linearGradient id="paint0_linear_1313_1495" x1="227.075" y1="47.9251" x2="229.533" y2="469.347" gradientUnits="userSpaceOnUse">
<stop stop-color="#F2F2F2"/>
<stop offset="1" stop-color="#EFEFEF"/>
</linearGradient>
<linearGradient id="paint1_linear_1313_1495" x1="229.269" y1="121.556" x2="229.269" y2="276.585" gradientUnits="userSpaceOnUse">
<stop stop-color="white"/>
<stop offset="0.71875" stop-color="#FAFAFA"/>
</linearGradient>
<clipPath id="clip0_1313_1495">
<rect width="300" height="300" fill="white" transform="translate(78 58)"/>
</clipPath>
</defs>
</svg>
